<?xml version="1.0" standalone="no"?>
<!DOCTYPE svg PUBLIC "-//W3C//DTD SVG 20010904//EN"
 "http://www.w3.org/TR/2001/REC-SVG-20010904/DTD/svg10.dtd">
<svg version="1.0" xmlns="http://www.w3.org/2000/svg"
 width="65.000000pt" height="131.000000pt" viewBox="0 0 65.000000 131.000000"
 preserveAspectRatio="xMidYMid meet">

<g transform="translate(0.000000,131.000000) scale(0.100000,-0.100000)"
fill="#000000" stroke="none">
<path d="M132 1237 c-23 -24 -48 -84 -39 -94 3 -3 11 13 17 35 6 23 22 50 37
61 14 12 21 21 16 21 -5 0 -19 -10 -31 -23z"/>
<path d="M523 1235 c15 -15 27 -30 28 -34 5 -41 19 -68 19 -37 0 27 -28 74
-53 87 -19 10 -18 8 6 -16z"/>
<path d="M571 1044 c0 -11 3 -14 6 -6 3 7 2 16 -1 19 -3 4 -6 -2 -5 -13z"/>
<path d="M214 991 c-42 -11 -92 -41 -96 -60 -2 -9 2 -51 10 -93 l14 -78 42 8
c54 9 239 9 297 -1 l47 -8 7 63 c4 35 12 71 17 81 15 28 -37 72 -100 86 -58
12 -189 13 -238 2z"/>
<path d="M557 851 c-2 -10 -1 -25 4 -32 5 -8 9 -12 10 -9 0 3 2 15 5 27 5 27
-12 40 -19 14z"/>
<path d="M90 831 c0 -30 1 -31 16 -16 16 15 16 18 0 33 -15 15 -16 14 -16 -17z"/>
<path d="M536 758 c-11 -115 -13 -528 -2 -517 13 13 24 564 12 576 -2 3 -7
-24 -10 -59z"/>
<path d="M118 545 c1 -140 7 -265 12 -277 10 -27 13 359 3 465 -12 133 -18 63
-15 -188z"/>
<path d="M213 713 c-10 -3 -13 -46 -13 -164 l0 -160 133 3 132 3 3 149 c2 101
-1 153 -9 162 -9 11 -39 14 -123 13 -61 0 -117 -3 -123 -6z"/>
<path d="M571 674 c0 -11 3 -14 6 -6 3 7 2 16 -1 19 -3 4 -6 -2 -5 -13z"/>
<path d="M565 380 c-3 -5 -1 -10 4 -10 6 0 11 5 11 10 0 6 -2 10 -4 10 -3 0
-8 -4 -11 -10z"/>
<path d="M84 275 c4 -42 11 -86 17 -98 7 -17 8 -10 4 27 -3 27 -5 71 -5 97 0
30 -4 49 -11 49 -8 0 -10 -22 -5 -75z"/>
<path d="M567 275 c-4 -44 -10 -93 -12 -110 -4 -25 -2 -23 10 10 10 26 15 65
13 110 l-3 70 -8 -80z"/>
<path d="M153 226 c4 -10 7 -41 8 -69 l1 -52 17 38 18 38 6 -42 c3 -23 10 -46
15 -51 14 -14 130 -22 186 -14 45 7 46 8 58 54 11 45 12 46 21 19 14 -42 27
-22 27 40 0 49 -2 54 -17 47 -46 -20 -257 -20 -322 1 -21 7 -23 6 -18 -9z"/>
<path d="M118 180 c-6 -55 -5 -57 12 -25 10 18 10 31 3 47 -9 21 -11 18 -15
-22z"/>
<path d="M536 211 c-8 -12 -5 -133 3 -126 5 6 9 135 4 135 -1 0 -4 -4 -7 -9z"/>
<path d="M120 98 c0 -9 5 -20 10 -23 13 -8 13 5 0 25 -8 13 -10 13 -10 -2z"/>
</g>
</svg>
